#!OML:ASF F:\VICON\USERDATA\INSTALL\rory3\rory3.ASF
:FULLY-SPECIFIED
:DEGREES
274
root 9.64723 15.6509 -5.33904 -175.332 46.4727 -169.323
lowerback 10.5344 0.0424404 5.08522
upperback -0.511825 0.836919 1.34255
thorax -6.41489 0.28609 -1.58716
lowerneck -9.80748 -9.39473 -13.4941
upperneck 19.9278 -12.7049 11.765
head 9.54298 -5.7176 4.76869
rclavicle 6.46982e-015 -3.97569e-015
rhumerus -33.009 4.32903 -86.3905
rradius 34.1754
rwrist 7.14709
rhand -16.805 14.1703
rfingers 7.12502
rthumb 9.42346 -15.599
lclavicle 6.46982e-015 -3.97569e-015
lhumerus -36.2504 11.8927 76.8076
lradius 21.4364
lwrist -5.66701
lhand -11.6773 14.4579
lfingers 7.12502
lthumb 14.3679 43.9407
rfemur -1.77339 3.97477 34.6276
rtibia 26.6428
rfoot -16.6857 -17.7041
rtoes 4.05031
lfemur -26.8933 -0.404291 -13.0784
ltibia 49.3987
lfoot -10.8405 8.53672
ltoes -14.1518
275
root 9.72939 15.6607 -5.41636 -175.086 46.6421 -169.031
lowerback 10.5723 0.04852 5.234
upperback -0.483638 0.871701 1.39548
thorax -6.40356 0.301113 -1.62085
lowerneck -9.76762 -9.3714 -13.4442
upperneck 19.8677 -12.6942 11.8262
head 9.5136 -5.70536 4.7849
rclavicle -4.74226e-014 1.66979e-014
rhumerus -32.8249 4.77901 -86.4939
rradius 34.8993
rwrist 6.58638
rhand -16.6585 14.2693
rfingers 7.12502
rthumb 9.56483 -15.4935
lclavicle -4.74226e-014 1.66979e-014
lhumerus -36.4745 12.1037 76.6146
lradius 21.2744
lwrist -5.58261
lhand -11.7722 14.4289
lfingers 7.12502
lthumb 14.2765 43.9182
rfemur -0.904711 3.90118 34.8415
rtibia 25.8488
rfoot -16.9487 -17.4143
rtoes 4.04445
lfemur -27.0493 -1.01896 -12.629
ltibia 47.3134
lfoot -11.3331 8.96033
ltoes -12.7338
276
root 9.81138 15.6702 -5.4942 -175.023 46.8844 -169.079
lowerback 10.5629 0.0537924 5.0558
upperback -0.478076 0.858376 1.43988
thorax -6.39583 0.301615 -1.47193
lowerneck -9.74352 -9.31335 -13.4861
upperneck 19.8625 -12.6157 11.869
head 9.50197 -5.66902 4.81977
rclavicle 2.17017e-014 1.59028e-015
rhumerus -32.6404 5.28349 -86.556
rradius 35.5796
rwrist 6.20722
rhand -16.6228 14.1994
rfingers 7.12502
rthumb 9.59928 -15.5619
lclavicle 2.17017e-014 1.59028e-015
lhumerus -36.8318 12.6422 76.3284
lradius 21.1702
lwrist -5.83075
lhand -11.7665 14.4199
lfingers 7.12502
lthumb 14.282 43.9088
rfemur -0.0805441 3.86059 34.7717
rtibia 24.9991
rfoot -16.8238 -17.4893
rtoes 2.92397
lfemur -27.1454 -1.65165 -12.4457
ltibia 45.141
lfoot -11.3502 9.6887
ltoes -12.8061
277
root 9.89461 15.6808 -5.57281 -174.985 47.1433 -169.185
lowerback 10.5149 0.0903894 4.83723
upperback -0.464868 0.875374 1.45031
thorax -6.35606 0.317969 -1.34047
lowerneck -9.72353 -9.28609 -13.4082
upperneck 19.8014 -12.5858 11.8494
head 9.46545 -5.65375 4.80452
rclavicle 3.08303e-014 4.37326e-015
rhumerus -32.3947 5.58747 -86.5984
rradius 36.1535
rwrist 5.98227
rhand -16.4197 14.2039
rfingers 7.12502
rthumb 9.7952 -15.5483
lclavicle 3.08303e-014 4.37326e-015
lhumerus -37.1586 13.131 76.0093
lradius 21.0762
lwrist -6.27982
lhand -11.5915 14.3504
lfingers 7.12502
lthumb 14.4506 43.8272
rfemur 0.731037 3.85248 34.6555
rtibia 24.1198
rfoot -16.625 -17.6023
rtoes 2.18229
lfemur -27.2457 -2.47165 -12.2725
ltibia 42.9228
lfoot -11.2892 10.8986
ltoes -13.693
278
root 9.97662 15.6905 -5.65157 -174.661 47.4126 -168.821
lowerback 10.528 0.132172 5.01605
upperback -0.424652 0.957989 1.48865
thorax -6.31453 0.356015 -1.41359
lowerneck -9.6944 -9.29738 -13.2466
upperneck 19.7036 -12.6181 11.7997
head 9.4152 -5.66523 4.75554
rclavicle 1.40267e-014 1.35174e-014
rhumerus -32.0857 5.697 -86.671
rradius 36.5811
rwrist 5.81126
rhand -16.3225 14.3025
rfingers 7.12502
rthumb 9.88905 -15.4452
lclavicle 1.40267e-014 1.35174e-014
lhumerus -37.348 13.524 75.6592
lradius 20.8677
lwrist -6.74943
lhand -11.4175 14.2117
lfingers 7.12502
lthumb 14.6183 43.6765
rfemur 1.60608 3.80015 34.8614
rtibia 23.2277
rfoot -16.5623 -17.3221
rtoes 1.7398
lfemur -27.2971 -3.28678 -11.6734
ltibia 40.7574
lfoot -11.7024 12.0396
ltoes -11.7335
279
root 10.0576 15.6972 -5.73127 -174.237 47.7343 -168.354
lowerback 10.5376 0.15673 5.20443
upperback -0.406548 1.02629 1.60155
thorax -6.29641 0.388046 -1.41141
lowerneck -9.67127 -9.28309 -13.2728
upperneck 19.6483 -12.596 11.8098
head 9.39108 -5.65905 4.76652
rclavicle 6.60089e-014 -7.95139e-016
rhumerus -31.7741 5.98668 -86.7228
rradius 36.8747
rwrist 5.59998
rhand -16.4601 14.3387
rfingers 7.12502
rthumb 9.75626 -15.4153
lclavicle 6.60089e-014 -7.95139e-016
lhumerus -37.6153 13.9042 75.4337
lradius 20.6946
lwrist -6.9629
lhand -11.3819 14.1619
lfingers 7.12502
lthumb 14.6526 43.6242
rfemur 2.4798 3.82097 35.1288
rtibia 22.2983
rfoot -16.4587 -17.0122
rtoes 1.41113
lfemur -27.3217 -3.9976 -10.9487
ltibia 38.6805
lfoot -11.9911 12.9223
ltoes -8.47902
280
root 10.139 15.7004 -5.81226 -173.845 48.0567 -167.986
lowerback 10.489 0.195097 5.31036
upperback -0.394899 1.09724 1.70696
thorax -6.25297 0.424065 -1.37053
lowerneck -9.72838 -9.28725 -13.3823
upperneck 19.7224 -12.5985 11.8888
head 9.44151 -5.65734 4.81077
rclavicle 1.09711e-013 -8.34896e-015
rhumerus -31.5327 6.38951 -86.8002
rradius 37.2844
rwrist 5.2856
rhand -16.5689 14.141
rfingers 7.12502
rthumb 9.6513 -15.6179
lclavicle 1.09711e-013 -8.34896e-015
lhumerus -37.8504 14.1717 75.2938
lradius 20.5334
lwrist -7.143
lhand -11.3303 14.1507
lfingers 7.12502
lthumb 14.7023 43.6094
rfemur 3.31182 3.9255 35.3332
rtibia 21.3532
rfoot -16.0575 -16.9107
rtoes 0.332687
lfemur -27.3749 -4.71068 -10.272
ltibia 36.7081
lfoot -12.0584 13.7731
ltoes -4.97767
281
root 10.2195 15.7033 -5.89352 -173.484 48.3336 -167.678
lowerback 10.4423 0.22783 5.42404
upperback -0.398521 1.15713 1.75986
thorax -6.22614 0.452135 -1.38737
lowerneck -9.81969 -9.30963 -13.5024
upperneck 19.8783 -12.6398 12.0355
head 9.53829 -5.66366 4.87551
rclavicle 7.88678e-014 -2.54444e-014
rhumerus -31.3705 6.67135 -86.9029
rradius 37.8067
rwrist 5.01422
rhand -16.4907 13.9307
rfingers 7.12502
rthumb 9.72672 -15.8247
lclavicle 7.88678e-014 -2.54444e-014
lhumerus -38.0647 14.3875 75.0942
lradius 20.3609
lwrist -7.31401
lhand -11.3177 14.1624
lfingers 7.12502
lthumb 14.7144 43.6202
rfemur 4.12949 3.98145 35.4887
rtibia 20.4341
rfoot -15.7477 -16.7266
rtoes -0.294977
lfemur -27.4571 -5.45459 -9.62326
ltibia 34.8349
lfoot -12.0342 14.575
ltoes -3.56805
282
root 10.2993 15.7101 -5.97707 -173.201 48.5974 -167.515
lowerback 10.3351 0.253479 5.45419
upperback -0.399533 1.18835 1.77774
thorax -6.16442 0.468366 -1.38889
lowerneck -9.87292 -9.32393 -13.5688
upperneck 19.9531 -12.6702 12.1399
head 9.59131 -5.66876 4.91831
rclavicle 6.35241e-014 -1.23246e-014
rhumerus -31.1905 6.90157 -87.0175
rradius 38.2062
rwrist 4.75399
rhand -16.5394 13.9537
rfingers 7.12502
rthumb 9.67974 -15.8039
lclavicle 6.35241e-014 -1.23246e-014
lhumerus -38.2741 14.6778 74.8533
lradius 20.1536
lwrist -7.58122
lhand -11.4539 14.1127
lfingers 7.12502
lthumb 14.5832 43.58
rfemur 4.91555 3.99127 35.5112
rtibia 19.5232
rfoot -15.4189 -16.5841
rtoes -0.840964
lfemur -27.5428 -6.42028 -9.01128
ltibia 33.0602
lfoot -12.235 15.3517
ltoes -3.74616
